<mxfile host="Electron" modified="2023-06-14T11:57:14.532Z" agent="Mozilla/5.0 (X11; Linux x86_64) AppleWebKit/537.36 (KHTML, like Gecko) draw.io/21.3.7 Chrome/112.0.5615.204 Electron/24.5.0 Safari/537.36" etag="Kfl5GxOTV7b9fq9eo6N3" version="21.3.7" type="device" pages="2">
  <diagram id="xSo2HiY1L23VHxw0pO5f" name="coe-mapping">
    <mxGraphModel dx="1160" dy="560" grid="1" gridSize="10" guides="1" tooltips="1" connect="1" arrows="1" fold="1" page="1" pageScale="1" pageWidth="413" pageHeight="291" math="0" shadow="0">
      <root>
        <mxCell id="0" />
        <mxCell id="1" parent="0" />
        <mxCell id="4Ru6zImF6eiVH4bG0zJ7-3" style="edgeStyle=orthogonalEdgeStyle;rounded=0;orthogonalLoop=1;jettySize=auto;html=1;" parent="1" source="4Ru6zImF6eiVH4bG0zJ7-1" target="4Ru6zImF6eiVH4bG0zJ7-2" edge="1">
          <mxGeometry relative="1" as="geometry" />
        </mxCell>
        <mxCell id="4Ru6zImF6eiVH4bG0zJ7-1" value="SDO [n]" style="rounded=0;whiteSpace=wrap;html=1;" parent="1" vertex="1">
          <mxGeometry x="167" y="40" width="80" height="40" as="geometry" />
        </mxCell>
        <mxCell id="4Ru6zImF6eiVH4bG0zJ7-5" style="edgeStyle=orthogonalEdgeStyle;rounded=0;orthogonalLoop=1;jettySize=auto;html=1;" parent="1" source="4Ru6zImF6eiVH4bG0zJ7-2" target="4Ru6zImF6eiVH4bG0zJ7-4" edge="1">
          <mxGeometry relative="1" as="geometry" />
        </mxCell>
        <mxCell id="4Ru6zImF6eiVH4bG0zJ7-2" value="PDO [n]" style="rounded=0;whiteSpace=wrap;html=1;" parent="1" vertex="1">
          <mxGeometry x="167" y="157" width="80" height="40" as="geometry" />
        </mxCell>
        <mxCell id="4Ru6zImF6eiVH4bG0zJ7-7" style="edgeStyle=orthogonalEdgeStyle;rounded=0;orthogonalLoop=1;jettySize=auto;html=1;" parent="1" source="4Ru6zImF6eiVH4bG0zJ7-4" target="4Ru6zImF6eiVH4bG0zJ7-6" edge="1">
          <mxGeometry relative="1" as="geometry" />
        </mxCell>
        <mxCell id="4Ru6zImF6eiVH4bG0zJ7-4" value="Sync Channel [n]" style="rounded=0;whiteSpace=wrap;html=1;" parent="1" vertex="1">
          <mxGeometry x="150.75" y="280" width="113" height="40" as="geometry" />
        </mxCell>
        <mxCell id="4Ru6zImF6eiVH4bG0zJ7-9" style="edgeStyle=orthogonalEdgeStyle;rounded=0;orthogonalLoop=1;jettySize=auto;html=1;" parent="1" source="4Ru6zImF6eiVH4bG0zJ7-6" target="4Ru6zImF6eiVH4bG0zJ7-8" edge="1">
          <mxGeometry relative="1" as="geometry" />
        </mxCell>
        <mxCell id="4Ru6zImF6eiVH4bG0zJ7-6" value="Physical Memory" style="rounded=0;whiteSpace=wrap;html=1;" parent="1" vertex="1">
          <mxGeometry x="150" y="400" width="113" height="40" as="geometry" />
        </mxCell>
        <mxCell id="4Ru6zImF6eiVH4bG0zJ7-8" value="Logical Memory" style="rounded=0;whiteSpace=wrap;html=1;fontColor=#B3FF66;strokeColor=#B3FF66;" parent="1" vertex="1">
          <mxGeometry x="150.75" y="520" width="113" height="40" as="geometry" />
        </mxCell>
        <mxCell id="4Ru6zImF6eiVH4bG0zJ7-11" value="" style="endArrow=diamond;html=1;rounded=0;startArrow=none;startFill=0;endFill=0;" parent="1" target="4Ru6zImF6eiVH4bG0zJ7-1" edge="1">
          <mxGeometry width="50" height="50" relative="1" as="geometry">
            <mxPoint x="320" y="240" as="sourcePoint" />
            <mxPoint x="270" y="180" as="targetPoint" />
            <Array as="points">
              <mxPoint x="320" y="60" />
            </Array>
          </mxGeometry>
        </mxCell>
        <mxCell id="4Ru6zImF6eiVH4bG0zJ7-12" value="" style="endArrow=classic;html=1;rounded=0;" parent="1" edge="1">
          <mxGeometry width="50" height="50" relative="1" as="geometry">
            <mxPoint x="320" y="120" as="sourcePoint" />
            <mxPoint x="210" y="120" as="targetPoint" />
          </mxGeometry>
        </mxCell>
        <mxCell id="4Ru6zImF6eiVH4bG0zJ7-14" value="PDO mapping" style="edgeLabel;html=1;align=center;verticalAlign=middle;resizable=0;points=[];labelBackgroundColor=none;" parent="4Ru6zImF6eiVH4bG0zJ7-12" vertex="1" connectable="0">
          <mxGeometry x="0.2261" y="1" relative="1" as="geometry">
            <mxPoint x="12" y="-11" as="offset" />
          </mxGeometry>
        </mxCell>
        <mxCell id="4Ru6zImF6eiVH4bG0zJ7-13" value="" style="endArrow=classic;html=1;rounded=0;" parent="1" edge="1">
          <mxGeometry width="50" height="50" relative="1" as="geometry">
            <mxPoint x="320" y="240" as="sourcePoint" />
            <mxPoint x="210" y="240" as="targetPoint" />
          </mxGeometry>
        </mxCell>
        <mxCell id="4Ru6zImF6eiVH4bG0zJ7-15" value="Sync mapping" style="edgeLabel;html=1;align=center;verticalAlign=middle;resizable=0;points=[];labelBackgroundColor=none;" parent="4Ru6zImF6eiVH4bG0zJ7-13" vertex="1" connectable="0">
          <mxGeometry x="-0.4452" y="-1" relative="1" as="geometry">
            <mxPoint x="-25" y="-9" as="offset" />
          </mxGeometry>
        </mxCell>
        <mxCell id="4Ru6zImF6eiVH4bG0zJ7-16" value="" style="endArrow=diamond;html=1;rounded=0;startArrow=none;startFill=0;endFill=0;" parent="1" target="4Ru6zImF6eiVH4bG0zJ7-6" edge="1">
          <mxGeometry width="50" height="50" relative="1" as="geometry">
            <mxPoint x="320" y="420" as="sourcePoint" />
            <mxPoint x="280" y="420" as="targetPoint" />
            <Array as="points" />
          </mxGeometry>
        </mxCell>
        <mxCell id="4Ru6zImF6eiVH4bG0zJ7-17" value="" style="endArrow=classic;html=1;rounded=0;" parent="1" edge="1">
          <mxGeometry width="50" height="50" relative="1" as="geometry">
            <mxPoint x="320" y="420" as="sourcePoint" />
            <mxPoint x="210" y="360" as="targetPoint" />
            <Array as="points">
              <mxPoint x="320" y="360" />
            </Array>
          </mxGeometry>
        </mxCell>
        <mxCell id="4Ru6zImF6eiVH4bG0zJ7-19" value="Sync Manager" style="edgeLabel;html=1;align=center;verticalAlign=middle;resizable=0;points=[];labelBackgroundColor=none;" parent="4Ru6zImF6eiVH4bG0zJ7-17" vertex="1" connectable="0">
          <mxGeometry x="0.2775" y="-3" relative="1" as="geometry">
            <mxPoint x="-8" y="-7" as="offset" />
          </mxGeometry>
        </mxCell>
        <mxCell id="4Ru6zImF6eiVH4bG0zJ7-18" value="" style="endArrow=classic;html=1;rounded=0;" parent="1" edge="1">
          <mxGeometry width="50" height="50" relative="1" as="geometry">
            <mxPoint x="320" y="420" as="sourcePoint" />
            <mxPoint x="210" y="480" as="targetPoint" />
            <Array as="points">
              <mxPoint x="320" y="480" />
            </Array>
          </mxGeometry>
        </mxCell>
        <mxCell id="4Ru6zImF6eiVH4bG0zJ7-20" value="FMMU mapping" style="edgeLabel;html=1;align=center;verticalAlign=middle;resizable=0;points=[];labelBackgroundColor=none;" parent="4Ru6zImF6eiVH4bG0zJ7-18" vertex="1" connectable="0">
          <mxGeometry x="-0.0308" y="-1" relative="1" as="geometry">
            <mxPoint x="-34" y="-9" as="offset" />
          </mxGeometry>
        </mxCell>
        <mxCell id="4Ru6zImF6eiVH4bG0zJ7-23" style="edgeStyle=orthogonalEdgeStyle;rounded=0;orthogonalLoop=1;jettySize=auto;html=1;startArrow=async;startFill=1;endArrow=async;endFill=1;strokeColor=#B3FF66;" parent="1" source="4Ru6zImF6eiVH4bG0zJ7-21" target="4Ru6zImF6eiVH4bG0zJ7-1" edge="1">
          <mxGeometry relative="1" as="geometry" />
        </mxCell>
        <mxCell id="4Ru6zImF6eiVH4bG0zJ7-36" value="no RT" style="edgeLabel;html=1;align=center;verticalAlign=middle;resizable=0;points=[];fontColor=#B3FF66;fontStyle=2;labelBackgroundColor=none;" parent="4Ru6zImF6eiVH4bG0zJ7-23" vertex="1" connectable="0">
          <mxGeometry x="-0.2445" y="-2" relative="1" as="geometry">
            <mxPoint y="8" as="offset" />
          </mxGeometry>
        </mxCell>
        <mxCell id="4Ru6zImF6eiVH4bG0zJ7-21" value="CoE: SDO request" style="shape=hexagon;perimeter=hexagonPerimeter2;whiteSpace=wrap;html=1;fixedSize=1;size=10;fontColor=#B3FF66;strokeColor=#B3FF66;" parent="1" vertex="1">
          <mxGeometry x="-20" y="50" width="120" height="20" as="geometry" />
        </mxCell>
        <mxCell id="4Ru6zImF6eiVH4bG0zJ7-24" style="edgeStyle=orthogonalEdgeStyle;rounded=0;orthogonalLoop=1;jettySize=auto;html=1;startArrow=async;startFill=1;endArrow=async;endFill=1;strokeColor=#B3FF66;" parent="1" source="4Ru6zImF6eiVH4bG0zJ7-25" target="4Ru6zImF6eiVH4bG0zJ7-2" edge="1">
          <mxGeometry relative="1" as="geometry">
            <mxPoint x="167" y="177" as="targetPoint" />
          </mxGeometry>
        </mxCell>
        <mxCell id="4Ru6zImF6eiVH4bG0zJ7-34" value="no RT" style="edgeLabel;html=1;align=center;verticalAlign=middle;resizable=0;points=[];fontColor=#B3FF66;fontStyle=2;labelBackgroundColor=none;" parent="4Ru6zImF6eiVH4bG0zJ7-24" vertex="1" connectable="0">
          <mxGeometry x="-0.2651" relative="1" as="geometry">
            <mxPoint y="10" as="offset" />
          </mxGeometry>
        </mxCell>
        <mxCell id="4Ru6zImF6eiVH4bG0zJ7-25" value="CoE: PDO request" style="shape=hexagon;perimeter=hexagonPerimeter2;whiteSpace=wrap;html=1;fixedSize=1;size=10;fontColor=#B3FF66;strokeColor=#B3FF66;" parent="1" vertex="1">
          <mxGeometry x="-20" y="167" width="120" height="20" as="geometry" />
        </mxCell>
        <mxCell id="4Ru6zImF6eiVH4bG0zJ7-28" style="edgeStyle=orthogonalEdgeStyle;rounded=0;orthogonalLoop=1;jettySize=auto;html=1;startArrow=async;startFill=1;endArrow=async;endFill=1;strokeColor=#B3FF66;strokeWidth=1;" parent="1" source="4Ru6zImF6eiVH4bG0zJ7-29" target="4Ru6zImF6eiVH4bG0zJ7-6" edge="1">
          <mxGeometry relative="1" as="geometry">
            <mxPoint x="150.75" y="419.0344827586207" as="targetPoint" />
          </mxGeometry>
        </mxCell>
        <mxCell id="4Ru6zImF6eiVH4bG0zJ7-32" value="RT" style="edgeLabel;html=1;align=center;verticalAlign=middle;resizable=0;points=[];fontColor=#B3FF66;fontStyle=2;labelBackgroundColor=none;" parent="4Ru6zImF6eiVH4bG0zJ7-28" vertex="1" connectable="0">
          <mxGeometry x="-0.2843" relative="1" as="geometry">
            <mxPoint x="-2" y="10" as="offset" />
          </mxGeometry>
        </mxCell>
        <mxCell id="4Ru6zImF6eiVH4bG0zJ7-29" value="PDU: *P*" style="shape=hexagon;perimeter=hexagonPerimeter2;whiteSpace=wrap;html=1;fixedSize=1;size=10;fontColor=#B3FF66;strokeColor=#B3FF66;" parent="1" vertex="1">
          <mxGeometry x="-20" y="410" width="80" height="20" as="geometry" />
        </mxCell>
        <mxCell id="4Ru6zImF6eiVH4bG0zJ7-30" style="edgeStyle=orthogonalEdgeStyle;rounded=0;orthogonalLoop=1;jettySize=auto;html=1;startArrow=async;startFill=1;endArrow=async;endFill=1;strokeColor=#B3FF66;" parent="1" source="4Ru6zImF6eiVH4bG0zJ7-31" target="4Ru6zImF6eiVH4bG0zJ7-8" edge="1">
          <mxGeometry relative="1" as="geometry">
            <mxPoint x="150" y="539.0344827586207" as="targetPoint" />
          </mxGeometry>
        </mxCell>
        <mxCell id="4Ru6zImF6eiVH4bG0zJ7-33" value="RT" style="edgeLabel;html=1;align=center;verticalAlign=middle;resizable=0;points=[];fontColor=#B3FF66;fontStyle=2;labelBackgroundColor=none;" parent="4Ru6zImF6eiVH4bG0zJ7-30" vertex="1" connectable="0">
          <mxGeometry x="-0.2646" y="3" relative="1" as="geometry">
            <mxPoint x="-3" y="13" as="offset" />
          </mxGeometry>
        </mxCell>
        <mxCell id="4Ru6zImF6eiVH4bG0zJ7-31" value="PDU: *L*" style="shape=hexagon;perimeter=hexagonPerimeter2;whiteSpace=wrap;html=1;fixedSize=1;size=10;fontColor=#B3FF66;strokeColor=#B3FF66;" parent="1" vertex="1">
          <mxGeometry x="-20.75" y="530" width="80" height="20" as="geometry" />
        </mxCell>
        <mxCell id="qfV8nekkNqnrZ_I5vlqD-1" value="X" style="shape=hexagon;perimeter=hexagonPerimeter2;whiteSpace=wrap;html=1;fixedSize=1;strokeColor=#FFFFFF;fontColor=#FFFFFF;size=10;" parent="1" vertex="1">
          <mxGeometry x="400" y="230" width="40" height="20" as="geometry" />
        </mxCell>
        <mxCell id="qfV8nekkNqnrZ_I5vlqD-2" value="X" style="rounded=0;whiteSpace=wrap;html=1;strokeColor=#FFFFFF;fontColor=#FFFFFF;" parent="1" vertex="1">
          <mxGeometry x="400" y="260" width="40" height="20" as="geometry" />
        </mxCell>
        <mxCell id="qfV8nekkNqnrZ_I5vlqD-3" value="" style="endArrow=none;html=1;rounded=0;strokeColor=#B3FF66;strokeWidth=1;fontColor=#FFFFFF;" parent="1" edge="1">
          <mxGeometry width="50" height="50" relative="1" as="geometry">
            <mxPoint x="400" y="300.0000000000001" as="sourcePoint" />
            <mxPoint x="440" y="300.0000000000001" as="targetPoint" />
          </mxGeometry>
        </mxCell>
        <mxCell id="qfV8nekkNqnrZ_I5vlqD-4" value="exterior to slave" style="text;html=1;strokeColor=none;fillColor=none;align=left;verticalAlign=middle;whiteSpace=wrap;rounded=0;fontColor=#FFFFFF;" parent="1" vertex="1">
          <mxGeometry x="450" y="290" width="100" height="20" as="geometry" />
        </mxCell>
        <mxCell id="qfV8nekkNqnrZ_I5vlqD-5" value="memory" style="text;html=1;strokeColor=none;fillColor=none;align=left;verticalAlign=middle;whiteSpace=wrap;rounded=0;fontColor=#FFFFFF;" parent="1" vertex="1">
          <mxGeometry x="450" y="260" width="100" height="20" as="geometry" />
        </mxCell>
        <mxCell id="qfV8nekkNqnrZ_I5vlqD-6" value="imperative / event&amp;nbsp;interaction" style="text;html=1;strokeColor=none;fillColor=none;align=left;verticalAlign=middle;whiteSpace=wrap;rounded=0;fontColor=#FFFFFF;" parent="1" vertex="1">
          <mxGeometry x="450" y="230" width="170" height="20" as="geometry" />
        </mxCell>
        <mxCell id="qfV8nekkNqnrZ_I5vlqD-7" value="" style="group" parent="1" vertex="1" connectable="0">
          <mxGeometry x="410" y="320" width="30" height="20" as="geometry" />
        </mxCell>
        <mxCell id="qfV8nekkNqnrZ_I5vlqD-8" value="" style="endArrow=none;html=1;rounded=0;strokeColor=#FFFFFF;strokeWidth=1;fontColor=#FFFFFF;endFill=0;" parent="qfV8nekkNqnrZ_I5vlqD-7" edge="1">
          <mxGeometry width="50" height="50" relative="1" as="geometry">
            <mxPoint as="sourcePoint" />
            <mxPoint y="20" as="targetPoint" />
          </mxGeometry>
        </mxCell>
        <mxCell id="qfV8nekkNqnrZ_I5vlqD-9" value="" style="endArrow=classic;html=1;rounded=0;strokeColor=#FFFFFF;strokeWidth=1;fontColor=#FFFFFF;" parent="qfV8nekkNqnrZ_I5vlqD-7" edge="1">
          <mxGeometry width="50" height="50" relative="1" as="geometry">
            <mxPoint x="30" y="10" as="sourcePoint" />
            <mxPoint y="10" as="targetPoint" />
          </mxGeometry>
        </mxCell>
        <mxCell id="qfV8nekkNqnrZ_I5vlqD-10" value="controled memory copy" style="text;html=1;strokeColor=none;fillColor=none;align=left;verticalAlign=middle;whiteSpace=wrap;rounded=0;fontColor=#FFFFFF;" parent="1" vertex="1">
          <mxGeometry x="450" y="320" width="140" height="20" as="geometry" />
        </mxCell>
        <mxCell id="iK2GSKaK-kGXfbY0NL2C-1" value="convetion" style="text;html=1;strokeColor=none;fillColor=none;align=center;verticalAlign=middle;whiteSpace=wrap;rounded=0;fontColor=#CCCCCC;rotation=-90;" parent="1" vertex="1">
          <mxGeometry x="363" y="280" width="50" height="20" as="geometry" />
        </mxCell>
        <mxCell id="ccjQ7luYCBVObNZ8T_IS-1" value="" style="endArrow=none;dashed=1;html=1;rounded=0;strokeColor=#FFFFFF;strokeWidth=1;fontColor=#FFFFFF;" parent="1" edge="1">
          <mxGeometry width="50" height="50" relative="1" as="geometry">
            <mxPoint x="-10" y="500" as="sourcePoint" />
            <mxPoint x="490" y="500" as="targetPoint" />
          </mxGeometry>
        </mxCell>
        <mxCell id="ccjQ7luYCBVObNZ8T_IS-3" value="common to all slaves" style="text;html=1;strokeColor=none;fillColor=none;align=left;verticalAlign=middle;whiteSpace=wrap;rounded=0;fontColor=#FFFFFF;labelBackgroundColor=none;" parent="1" vertex="1">
          <mxGeometry x="390" y="500" width="122" height="30" as="geometry" />
        </mxCell>
        <mxCell id="ccjQ7luYCBVObNZ8T_IS-4" value="duplicate in each slave" style="text;html=1;strokeColor=none;fillColor=none;align=left;verticalAlign=middle;whiteSpace=wrap;rounded=0;fontColor=#FFFFFF;labelBackgroundColor=none;" parent="1" vertex="1">
          <mxGeometry x="390" y="470" width="140" height="30" as="geometry" />
        </mxCell>
        <mxCell id="1z11TyF5do0gvhbxWdwL-1" style="edgeStyle=orthogonalEdgeStyle;rounded=0;orthogonalLoop=1;jettySize=auto;html=1;" edge="1" parent="1">
          <mxGeometry relative="1" as="geometry">
            <mxPoint x="419.5" y="350" as="sourcePoint" />
            <mxPoint x="420" y="370" as="targetPoint" />
          </mxGeometry>
        </mxCell>
        <mxCell id="1z11TyF5do0gvhbxWdwL-2" value="memory copy" style="text;html=1;strokeColor=none;fillColor=none;align=left;verticalAlign=middle;whiteSpace=wrap;rounded=0;fontColor=#FFFFFF;" vertex="1" parent="1">
          <mxGeometry x="450" y="350" width="140" height="20" as="geometry" />
        </mxCell>
      </root>
    </mxGraphModel>
  </diagram>
  <diagram id="_8FAGCXtMd00wYIMLbOl" name="ethercat-protocols">
    <mxGraphModel dx="1160" dy="851" grid="1" gridSize="10" guides="1" tooltips="1" connect="1" arrows="1" fold="1" page="1" pageScale="1" pageWidth="413" pageHeight="291" math="0" shadow="0">
      <root>
        <mxCell id="0" />
        <mxCell id="1" parent="0" />
        <mxCell id="b5wkpN0NfMo4dcbJ8pbd-1" style="edgeStyle=orthogonalEdgeStyle;rounded=0;orthogonalLoop=1;jettySize=auto;html=1;strokeColor=#FFFFFF;strokeWidth=1;fontColor=#B3FF66;startArrow=classic;startFill=1;endArrow=none;endFill=0;" parent="1" target="ZF6e5rGpWGo1_K8emj9--1" edge="1">
          <mxGeometry relative="1" as="geometry">
            <mxPoint x="220" y="400" as="sourcePoint" />
          </mxGeometry>
        </mxCell>
        <mxCell id="aYKAqV-2u8CjJugTNmkf-5" value="no RT" style="edgeLabel;html=1;align=center;verticalAlign=middle;resizable=0;points=[];fontColor=#B3FF66;fontStyle=2;labelBackgroundColor=none;" parent="b5wkpN0NfMo4dcbJ8pbd-1" vertex="1" connectable="0">
          <mxGeometry x="0.2543" y="1" relative="1" as="geometry">
            <mxPoint x="-19" as="offset" />
          </mxGeometry>
        </mxCell>
        <mxCell id="8XDSwn_1SekS3EZSxUaT-1" value="Physical Memory" style="rounded=0;whiteSpace=wrap;html=1;" parent="1" vertex="1">
          <mxGeometry x="160" y="400" width="790" height="40" as="geometry" />
        </mxCell>
        <mxCell id="8XDSwn_1SekS3EZSxUaT-2" style="edgeStyle=orthogonalEdgeStyle;rounded=0;orthogonalLoop=1;jettySize=auto;html=1;startArrow=async;startFill=1;endArrow=async;endFill=1;strokeColor=#B3FF66;strokeWidth=1;entryX=0;entryY=0.25;entryDx=0;entryDy=0;" parent="1" source="8XDSwn_1SekS3EZSxUaT-4" target="8XDSwn_1SekS3EZSxUaT-1" edge="1">
          <mxGeometry relative="1" as="geometry">
            <mxPoint x="150.75" y="419.0344827586207" as="targetPoint" />
          </mxGeometry>
        </mxCell>
        <mxCell id="aYKAqV-2u8CjJugTNmkf-4" value="RT" style="edgeLabel;html=1;align=center;verticalAlign=middle;resizable=0;points=[];fontColor=#B3FF66;fontStyle=2;labelBackgroundColor=none;" parent="8XDSwn_1SekS3EZSxUaT-2" vertex="1" connectable="0">
          <mxGeometry x="0.3552" y="1" relative="1" as="geometry">
            <mxPoint x="-38" y="51" as="offset" />
          </mxGeometry>
        </mxCell>
        <mxCell id="8XDSwn_1SekS3EZSxUaT-4" value="PDU: *P*" style="shape=hexagon;perimeter=hexagonPerimeter2;whiteSpace=wrap;html=1;fixedSize=1;size=10;fontColor=#B3FF66;strokeColor=#B3FF66;" parent="1" vertex="1">
          <mxGeometry x="-20" y="380" width="80" height="20" as="geometry" />
        </mxCell>
        <mxCell id="ZF6e5rGpWGo1_K8emj9--1" value="Mailbox" style="rounded=0;whiteSpace=wrap;html=1;" parent="1" vertex="1">
          <mxGeometry x="160" y="280" width="120" height="40" as="geometry" />
        </mxCell>
        <mxCell id="ZF6e5rGpWGo1_K8emj9--2" value="SI&lt;br&gt;(Slave Information)" style="rounded=0;whiteSpace=wrap;html=1;" parent="1" vertex="1">
          <mxGeometry x="360" y="280" width="120" height="40" as="geometry" />
        </mxCell>
        <mxCell id="b5wkpN0NfMo4dcbJ8pbd-2" style="edgeStyle=orthogonalEdgeStyle;rounded=0;orthogonalLoop=1;jettySize=auto;html=1;strokeColor=#FFFFFF;strokeWidth=1;fontColor=#B3FF66;startArrow=classic;startFill=1;endArrow=none;endFill=0;" parent="1" target="ZF6e5rGpWGo1_K8emj9--2" edge="1">
          <mxGeometry relative="1" as="geometry">
            <mxPoint x="420" y="400" as="sourcePoint" />
            <mxPoint x="216.51724137931046" y="330" as="targetPoint" />
          </mxGeometry>
        </mxCell>
        <mxCell id="aYKAqV-2u8CjJugTNmkf-6" value="no RT" style="edgeLabel;html=1;align=center;verticalAlign=middle;resizable=0;points=[];fontColor=#B3FF66;fontStyle=2;labelBackgroundColor=none;" parent="b5wkpN0NfMo4dcbJ8pbd-2" vertex="1" connectable="0">
          <mxGeometry x="0.2371" y="3" relative="1" as="geometry">
            <mxPoint x="-17" as="offset" />
          </mxGeometry>
        </mxCell>
        <mxCell id="LSwBOfJpBsrTYMr8iFte-1" value="" style="endArrow=classic;html=1;rounded=0;strokeColor=#FFFFFF;strokeWidth=1;fontColor=#B3FF66;startArrow=diamond;startFill=0;" parent="1" edge="1">
          <mxGeometry width="50" height="50" relative="1" as="geometry">
            <mxPoint x="320" y="400" as="sourcePoint" />
            <mxPoint x="220" y="360" as="targetPoint" />
            <Array as="points">
              <mxPoint x="320" y="360" />
            </Array>
          </mxGeometry>
        </mxCell>
        <mxCell id="LSwBOfJpBsrTYMr8iFte-3" value="Sync Channel" style="edgeLabel;html=1;align=center;verticalAlign=middle;resizable=0;points=[];fontColor=#FFFFFF;labelBackgroundColor=none;" parent="LSwBOfJpBsrTYMr8iFte-1" vertex="1" connectable="0">
          <mxGeometry x="0.6694" y="-1" relative="1" as="geometry">
            <mxPoint x="27" y="-9" as="offset" />
          </mxGeometry>
        </mxCell>
        <mxCell id="LSwBOfJpBsrTYMr8iFte-2" value="" style="endArrow=classic;html=1;rounded=0;strokeColor=#FFFFFF;strokeWidth=1;fontColor=#B3FF66;startArrow=diamond;startFill=0;" parent="1" edge="1">
          <mxGeometry width="50" height="50" relative="1" as="geometry">
            <mxPoint x="520" y="400" as="sourcePoint" />
            <mxPoint x="420" y="360" as="targetPoint" />
            <Array as="points">
              <mxPoint x="520" y="360" />
            </Array>
          </mxGeometry>
        </mxCell>
        <mxCell id="LSwBOfJpBsrTYMr8iFte-4" value="SIII" style="edgeLabel;html=1;align=center;verticalAlign=middle;resizable=0;points=[];fontColor=#FFFFFF;labelBackgroundColor=none;" parent="LSwBOfJpBsrTYMr8iFte-2" vertex="1" connectable="0">
          <mxGeometry x="0.0701" y="1" relative="1" as="geometry">
            <mxPoint x="-15" y="-9" as="offset" />
          </mxGeometry>
        </mxCell>
        <mxCell id="qalwHzUYBj2OZ9GdRqmM-3" style="edgeStyle=orthogonalEdgeStyle;rounded=0;orthogonalLoop=1;jettySize=auto;html=1;strokeColor=#FFFFFF;strokeWidth=1;fontColor=#FFFFFF;startArrow=none;startFill=0;endArrow=classic;endFill=1;exitX=0.5;exitY=1;exitDx=0;exitDy=0;" parent="1" source="qalwHzUYBj2OZ9GdRqmM-1" target="ZF6e5rGpWGo1_K8emj9--1" edge="1">
          <mxGeometry relative="1" as="geometry" />
        </mxCell>
        <mxCell id="qalwHzUYBj2OZ9GdRqmM-1" value="CoE" style="rounded=0;whiteSpace=wrap;html=1;" parent="1" vertex="1">
          <mxGeometry x="110" y="170" width="60" height="40" as="geometry" />
        </mxCell>
        <mxCell id="qalwHzUYBj2OZ9GdRqmM-6" style="edgeStyle=orthogonalEdgeStyle;rounded=0;orthogonalLoop=1;jettySize=auto;html=1;strokeColor=#FFFFFF;strokeWidth=1;fontColor=#FFFFFF;startArrow=none;startFill=0;endArrow=classic;endFill=1;" parent="1" source="qalwHzUYBj2OZ9GdRqmM-4" target="ZF6e5rGpWGo1_K8emj9--1" edge="1">
          <mxGeometry relative="1" as="geometry" />
        </mxCell>
        <mxCell id="qalwHzUYBj2OZ9GdRqmM-4" value="EoE" style="rounded=0;whiteSpace=wrap;html=1;" parent="1" vertex="1">
          <mxGeometry x="190" y="170" width="60" height="40" as="geometry" />
        </mxCell>
        <mxCell id="qalwHzUYBj2OZ9GdRqmM-7" style="edgeStyle=orthogonalEdgeStyle;rounded=0;orthogonalLoop=1;jettySize=auto;html=1;strokeColor=#FFFFFF;strokeWidth=1;fontColor=#FFFFFF;startArrow=none;startFill=0;endArrow=classic;endFill=1;" parent="1" source="qalwHzUYBj2OZ9GdRqmM-5" target="ZF6e5rGpWGo1_K8emj9--1" edge="1">
          <mxGeometry relative="1" as="geometry" />
        </mxCell>
        <mxCell id="qalwHzUYBj2OZ9GdRqmM-5" value="FoE" style="rounded=0;whiteSpace=wrap;html=1;" parent="1" vertex="1">
          <mxGeometry x="270" y="170" width="60" height="40" as="geometry" />
        </mxCell>
        <mxCell id="GpbXIh9yBpMMb-8W58p2-3" style="edgeStyle=orthogonalEdgeStyle;rounded=0;orthogonalLoop=1;jettySize=auto;html=1;strokeColor=#FFFFFF;strokeWidth=1;fontColor=#FFFFFF;startArrow=none;startFill=0;endArrow=classic;endFill=1;" parent="1" source="GpbXIh9yBpMMb-8W58p2-2" edge="1">
          <mxGeometry relative="1" as="geometry">
            <mxPoint x="620" y="400" as="targetPoint" />
          </mxGeometry>
        </mxCell>
        <mxCell id="aYKAqV-2u8CjJugTNmkf-7" value="RT" style="edgeLabel;html=1;align=center;verticalAlign=middle;resizable=0;points=[];fontColor=#B3FF66;fontStyle=2;labelBackgroundColor=none;" parent="GpbXIh9yBpMMb-8W58p2-3" vertex="1" connectable="0">
          <mxGeometry x="-0.3233" relative="1" as="geometry">
            <mxPoint x="-10" y="3" as="offset" />
          </mxGeometry>
        </mxCell>
        <mxCell id="GpbXIh9yBpMMb-8W58p2-2" value="Communication State" style="rounded=0;whiteSpace=wrap;html=1;" parent="1" vertex="1">
          <mxGeometry x="550" y="280" width="140" height="40" as="geometry" />
        </mxCell>
        <mxCell id="aYKAqV-2u8CjJugTNmkf-1" value="" style="endArrow=classic;html=1;rounded=0;strokeColor=#FFFFFF;strokeWidth=1;fontColor=#B3FF66;startArrow=diamond;startFill=0;" parent="1" edge="1">
          <mxGeometry width="50" height="50" relative="1" as="geometry">
            <mxPoint x="720" y="400" as="sourcePoint" />
            <mxPoint x="620" y="360" as="targetPoint" />
            <Array as="points">
              <mxPoint x="720" y="360" />
            </Array>
          </mxGeometry>
        </mxCell>
        <mxCell id="aYKAqV-2u8CjJugTNmkf-2" value="AR" style="edgeLabel;html=1;align=center;verticalAlign=middle;resizable=0;points=[];fontColor=#FFFFFF;labelBackgroundColor=none;" parent="aYKAqV-2u8CjJugTNmkf-1" vertex="1" connectable="0">
          <mxGeometry x="0.0701" y="1" relative="1" as="geometry">
            <mxPoint x="-11" y="-9" as="offset" />
          </mxGeometry>
        </mxCell>
        <mxCell id="IuZp6dSZytiGwndQuAE0-7" style="edgeStyle=orthogonalEdgeStyle;rounded=0;orthogonalLoop=1;jettySize=auto;html=1;strokeColor=#FFFFFF;strokeWidth=1;fontColor=#B3FF66;startArrow=none;startFill=0;endArrow=classic;endFill=1;" parent="1" source="IuZp6dSZytiGwndQuAE0-4" target="qalwHzUYBj2OZ9GdRqmM-5" edge="1">
          <mxGeometry relative="1" as="geometry" />
        </mxCell>
        <mxCell id="IuZp6dSZytiGwndQuAE0-4" value="slave file system" style="shape=hexagon;perimeter=hexagonPerimeter2;whiteSpace=wrap;html=1;fixedSize=1;strokeColor=#FFFFFF;fontColor=#FFFFFF;size=10;rotation=-90;" parent="1" vertex="1">
          <mxGeometry x="240" y="50" width="120" height="20" as="geometry" />
        </mxCell>
        <mxCell id="IuZp6dSZytiGwndQuAE0-6" style="edgeStyle=orthogonalEdgeStyle;rounded=0;orthogonalLoop=1;jettySize=auto;html=1;strokeColor=#FFFFFF;strokeWidth=1;fontColor=#B3FF66;startArrow=none;startFill=0;endArrow=classic;endFill=1;" parent="1" source="IuZp6dSZytiGwndQuAE0-5" target="qalwHzUYBj2OZ9GdRqmM-4" edge="1">
          <mxGeometry relative="1" as="geometry" />
        </mxCell>
        <mxCell id="IuZp6dSZytiGwndQuAE0-5" value="slave local ethernet" style="shape=hexagon;perimeter=hexagonPerimeter2;whiteSpace=wrap;html=1;fixedSize=1;strokeColor=#B3FF66;fontColor=#B3FF66;size=10;rotation=-90;" parent="1" vertex="1">
          <mxGeometry x="153.5" y="40" width="133" height="20" as="geometry" />
        </mxCell>
        <mxCell id="IuZp6dSZytiGwndQuAE0-10" style="edgeStyle=orthogonalEdgeStyle;rounded=0;orthogonalLoop=1;jettySize=auto;html=1;strokeColor=#FFFFFF;strokeWidth=1;fontColor=#FFFFFF;startArrow=none;startFill=0;endArrow=classic;endFill=1;" parent="1" source="IuZp6dSZytiGwndQuAE0-1" target="qalwHzUYBj2OZ9GdRqmM-1" edge="1">
          <mxGeometry relative="1" as="geometry" />
        </mxCell>
        <mxCell id="IuZp6dSZytiGwndQuAE0-1" value="COE: SDO request" style="shape=hexagon;perimeter=hexagonPerimeter2;whiteSpace=wrap;html=1;fixedSize=1;strokeColor=#FFFFFF;fontColor=#FFFFFF;size=10;rotation=-90;" parent="1" vertex="1">
          <mxGeometry x="42" y="40" width="130" height="20" as="geometry" />
        </mxCell>
        <mxCell id="IuZp6dSZytiGwndQuAE0-9" style="edgeStyle=orthogonalEdgeStyle;rounded=0;orthogonalLoop=1;jettySize=auto;html=1;strokeColor=#FFFFFF;strokeWidth=1;fontColor=#FFFFFF;startArrow=none;startFill=0;endArrow=classic;endFill=1;" parent="1" source="IuZp6dSZytiGwndQuAE0-2" target="qalwHzUYBj2OZ9GdRqmM-1" edge="1">
          <mxGeometry relative="1" as="geometry" />
        </mxCell>
        <mxCell id="IuZp6dSZytiGwndQuAE0-2" value="COE: PDO request" style="shape=hexagon;perimeter=hexagonPerimeter2;whiteSpace=wrap;html=1;fixedSize=1;strokeColor=#FFFFFF;fontColor=#FFFFFF;size=10;rotation=-90;" parent="1" vertex="1">
          <mxGeometry x="72" y="40" width="130" height="20" as="geometry" />
        </mxCell>
        <mxCell id="IuZp6dSZytiGwndQuAE0-11" style="edgeStyle=orthogonalEdgeStyle;rounded=0;orthogonalLoop=1;jettySize=auto;html=1;strokeColor=#FFFFFF;strokeWidth=1;fontColor=#FFFFFF;startArrow=none;startFill=0;endArrow=classic;endFill=1;" parent="1" source="IuZp6dSZytiGwndQuAE0-3" target="qalwHzUYBj2OZ9GdRqmM-1" edge="1">
          <mxGeometry relative="1" as="geometry" />
        </mxCell>
        <mxCell id="IuZp6dSZytiGwndQuAE0-3" value="COE: info" style="shape=hexagon;perimeter=hexagonPerimeter2;whiteSpace=wrap;html=1;fixedSize=1;strokeColor=#FFFFFF;fontColor=#FFFFFF;size=10;rotation=-90;" parent="1" vertex="1">
          <mxGeometry x="127" y="65" width="80" height="20" as="geometry" />
        </mxCell>
        <mxCell id="IuZp6dSZytiGwndQuAE0-12" value="X" style="shape=hexagon;perimeter=hexagonPerimeter2;whiteSpace=wrap;html=1;fixedSize=1;strokeColor=#FFFFFF;fontColor=#FFFFFF;size=10;" parent="1" vertex="1">
          <mxGeometry x="540" y="20" width="40" height="20" as="geometry" />
        </mxCell>
        <mxCell id="IuZp6dSZytiGwndQuAE0-13" value="X" style="rounded=0;whiteSpace=wrap;html=1;strokeColor=#FFFFFF;fontColor=#FFFFFF;" parent="1" vertex="1">
          <mxGeometry x="540" y="50" width="40" height="20" as="geometry" />
        </mxCell>
        <mxCell id="IuZp6dSZytiGwndQuAE0-14" value="" style="endArrow=none;html=1;rounded=0;strokeColor=#B3FF66;strokeWidth=1;fontColor=#FFFFFF;" parent="1" edge="1">
          <mxGeometry width="50" height="50" relative="1" as="geometry">
            <mxPoint x="540" y="90" as="sourcePoint" />
            <mxPoint x="580" y="90" as="targetPoint" />
          </mxGeometry>
        </mxCell>
        <mxCell id="IuZp6dSZytiGwndQuAE0-15" value="exterior to slave" style="text;html=1;strokeColor=none;fillColor=none;align=left;verticalAlign=middle;whiteSpace=wrap;rounded=0;fontColor=#FFFFFF;" parent="1" vertex="1">
          <mxGeometry x="590" y="80" width="100" height="20" as="geometry" />
        </mxCell>
        <mxCell id="IuZp6dSZytiGwndQuAE0-16" value="memory" style="text;html=1;strokeColor=none;fillColor=none;align=left;verticalAlign=middle;whiteSpace=wrap;rounded=0;fontColor=#FFFFFF;" parent="1" vertex="1">
          <mxGeometry x="590" y="50" width="100" height="20" as="geometry" />
        </mxCell>
        <mxCell id="IuZp6dSZytiGwndQuAE0-17" value="imperative / event&amp;nbsp;interaction" style="text;html=1;strokeColor=none;fillColor=none;align=left;verticalAlign=middle;whiteSpace=wrap;rounded=0;fontColor=#FFFFFF;" parent="1" vertex="1">
          <mxGeometry x="590" y="20" width="170" height="20" as="geometry" />
        </mxCell>
        <mxCell id="IuZp6dSZytiGwndQuAE0-20" value="" style="group" parent="1" vertex="1" connectable="0">
          <mxGeometry x="550" y="110" width="30" height="20" as="geometry" />
        </mxCell>
        <mxCell id="IuZp6dSZytiGwndQuAE0-18" value="" style="endArrow=none;html=1;rounded=0;strokeColor=#FFFFFF;strokeWidth=1;fontColor=#FFFFFF;endFill=0;" parent="IuZp6dSZytiGwndQuAE0-20" edge="1">
          <mxGeometry width="50" height="50" relative="1" as="geometry">
            <mxPoint as="sourcePoint" />
            <mxPoint y="20" as="targetPoint" />
          </mxGeometry>
        </mxCell>
        <mxCell id="IuZp6dSZytiGwndQuAE0-19" value="" style="endArrow=classic;html=1;rounded=0;strokeColor=#FFFFFF;strokeWidth=1;fontColor=#FFFFFF;" parent="IuZp6dSZytiGwndQuAE0-20" edge="1">
          <mxGeometry width="50" height="50" relative="1" as="geometry">
            <mxPoint x="30" y="10" as="sourcePoint" />
            <mxPoint y="10" as="targetPoint" />
          </mxGeometry>
        </mxCell>
        <mxCell id="IuZp6dSZytiGwndQuAE0-21" value="controled memory copy" style="text;html=1;strokeColor=none;fillColor=none;align=left;verticalAlign=middle;whiteSpace=wrap;rounded=0;fontColor=#FFFFFF;" parent="1" vertex="1">
          <mxGeometry x="590" y="110" width="140" height="20" as="geometry" />
        </mxCell>
        <mxCell id="MMLMx5DyQMg7fyzZ7OoW-1" value="convention" style="text;html=1;strokeColor=none;fillColor=none;align=center;verticalAlign=middle;whiteSpace=wrap;rounded=0;fontColor=#CCCCCC;rotation=-90;" parent="1" vertex="1">
          <mxGeometry x="500" y="65" width="50" height="20" as="geometry" />
        </mxCell>
        <mxCell id="v6RmxqhlWMf72LUk2Iwa-1" style="edgeStyle=orthogonalEdgeStyle;rounded=0;orthogonalLoop=1;jettySize=auto;html=1;strokeColor=#FFFFFF;strokeWidth=1;fontColor=#FFFFFF;startArrow=none;startFill=0;endArrow=classic;endFill=1;" parent="1" source="v6RmxqhlWMf72LUk2Iwa-3" edge="1">
          <mxGeometry relative="1" as="geometry">
            <mxPoint x="810" y="400" as="targetPoint" />
          </mxGeometry>
        </mxCell>
        <mxCell id="v6RmxqhlWMf72LUk2Iwa-2" value="RT" style="edgeLabel;html=1;align=center;verticalAlign=middle;resizable=0;points=[];fontColor=#B3FF66;fontStyle=2;labelBackgroundColor=none;" parent="v6RmxqhlWMf72LUk2Iwa-1" vertex="1" connectable="0">
          <mxGeometry x="-0.3233" relative="1" as="geometry">
            <mxPoint x="-10" y="3" as="offset" />
          </mxGeometry>
        </mxCell>
        <mxCell id="v6RmxqhlWMf72LUk2Iwa-3" value="Clock &amp;amp; Latch" style="rounded=0;whiteSpace=wrap;html=1;" parent="1" vertex="1">
          <mxGeometry x="760" y="280" width="100" height="40" as="geometry" />
        </mxCell>
        <mxCell id="v6RmxqhlWMf72LUk2Iwa-4" value="" style="endArrow=classic;html=1;rounded=0;strokeColor=#FFFFFF;strokeWidth=1;fontColor=#B3FF66;startArrow=diamond;startFill=0;" parent="1" edge="1">
          <mxGeometry width="50" height="50" relative="1" as="geometry">
            <mxPoint x="920" y="400" as="sourcePoint" />
            <mxPoint x="810" y="360" as="targetPoint" />
            <Array as="points">
              <mxPoint x="920" y="360" />
            </Array>
          </mxGeometry>
        </mxCell>
        <mxCell id="v6RmxqhlWMf72LUk2Iwa-5" value="DC" style="edgeLabel;html=1;align=center;verticalAlign=middle;resizable=0;points=[];fontColor=#FFFFFF;labelBackgroundColor=none;" parent="v6RmxqhlWMf72LUk2Iwa-4" vertex="1" connectable="0">
          <mxGeometry x="0.0701" y="1" relative="1" as="geometry">
            <mxPoint x="-11" y="-9" as="offset" />
          </mxGeometry>
        </mxCell>
        <mxCell id="hKHritsviRmfqAose65q-1" style="edgeStyle=orthogonalEdgeStyle;rounded=0;orthogonalLoop=1;jettySize=auto;html=1;startArrow=async;startFill=1;endArrow=async;endFill=1;strokeColor=#B3FF66;strokeWidth=1;entryX=0;entryY=0.75;entryDx=0;entryDy=0;" parent="1" source="hKHritsviRmfqAose65q-3" target="8XDSwn_1SekS3EZSxUaT-1" edge="1">
          <mxGeometry relative="1" as="geometry">
            <mxPoint x="160" y="460" as="targetPoint" />
          </mxGeometry>
        </mxCell>
        <mxCell id="hKHritsviRmfqAose65q-2" value="RT" style="edgeLabel;html=1;align=center;verticalAlign=middle;resizable=0;points=[];fontColor=#B3FF66;fontStyle=2;labelBackgroundColor=none;" parent="hKHritsviRmfqAose65q-1" vertex="1" connectable="0">
          <mxGeometry x="0.3552" y="1" relative="1" as="geometry">
            <mxPoint x="-38" y="-29" as="offset" />
          </mxGeometry>
        </mxCell>
        <mxCell id="hKHritsviRmfqAose65q-3" value="PDU: B*" style="shape=hexagon;perimeter=hexagonPerimeter2;whiteSpace=wrap;html=1;fixedSize=1;size=10;fontColor=#B3FF66;strokeColor=#B3FF66;" parent="1" vertex="1">
          <mxGeometry x="-20" y="440" width="80" height="20" as="geometry" />
        </mxCell>
        <mxCell id="axdMnx7qjgiOE42d1mzL-1" style="edgeStyle=orthogonalEdgeStyle;rounded=0;orthogonalLoop=1;jettySize=auto;html=1;" parent="1" target="axdMnx7qjgiOE42d1mzL-2" edge="1">
          <mxGeometry relative="1" as="geometry">
            <mxPoint x="220" y="440" as="sourcePoint" />
          </mxGeometry>
        </mxCell>
        <mxCell id="axdMnx7qjgiOE42d1mzL-2" value="Logical Memory" style="rounded=0;whiteSpace=wrap;html=1;fontColor=#B3FF66;strokeColor=#B3FF66;" parent="1" vertex="1">
          <mxGeometry x="160.75" y="520" width="119.25" height="40" as="geometry" />
        </mxCell>
        <mxCell id="axdMnx7qjgiOE42d1mzL-3" value="" style="endArrow=classic;html=1;rounded=0;startArrow=diamond;startFill=0;" parent="1" edge="1">
          <mxGeometry width="50" height="50" relative="1" as="geometry">
            <mxPoint x="320" y="440" as="sourcePoint" />
            <mxPoint x="220" y="480" as="targetPoint" />
            <Array as="points">
              <mxPoint x="320" y="480" />
            </Array>
          </mxGeometry>
        </mxCell>
        <mxCell id="axdMnx7qjgiOE42d1mzL-4" value="FMMU mapping" style="edgeLabel;html=1;align=center;verticalAlign=middle;resizable=0;points=[];labelBackgroundColor=none;" parent="axdMnx7qjgiOE42d1mzL-3" vertex="1" connectable="0">
          <mxGeometry x="-0.0308" y="-1" relative="1" as="geometry">
            <mxPoint x="-22" y="-9" as="offset" />
          </mxGeometry>
        </mxCell>
        <mxCell id="axdMnx7qjgiOE42d1mzL-5" style="edgeStyle=orthogonalEdgeStyle;rounded=0;orthogonalLoop=1;jettySize=auto;html=1;startArrow=async;startFill=1;endArrow=async;endFill=1;strokeColor=#B3FF66;" parent="1" source="axdMnx7qjgiOE42d1mzL-7" target="axdMnx7qjgiOE42d1mzL-2" edge="1">
          <mxGeometry relative="1" as="geometry">
            <mxPoint x="160" y="539.0344827586207" as="targetPoint" />
          </mxGeometry>
        </mxCell>
        <mxCell id="axdMnx7qjgiOE42d1mzL-6" value="RT" style="edgeLabel;html=1;align=center;verticalAlign=middle;resizable=0;points=[];fontColor=#B3FF66;fontStyle=2;labelBackgroundColor=none;" parent="axdMnx7qjgiOE42d1mzL-5" vertex="1" connectable="0">
          <mxGeometry x="-0.2646" y="3" relative="1" as="geometry">
            <mxPoint x="-17" y="13" as="offset" />
          </mxGeometry>
        </mxCell>
        <mxCell id="axdMnx7qjgiOE42d1mzL-7" value="PDU: *L*" style="shape=hexagon;perimeter=hexagonPerimeter2;whiteSpace=wrap;html=1;fixedSize=1;size=10;fontColor=#B3FF66;strokeColor=#B3FF66;" parent="1" vertex="1">
          <mxGeometry x="-20" y="530" width="80" height="20" as="geometry" />
        </mxCell>
        <mxCell id="JLEFRj4Bol9iPgGIUzPf-1" style="edgeStyle=orthogonalEdgeStyle;rounded=0;orthogonalLoop=1;jettySize=auto;html=1;" edge="1" parent="1">
          <mxGeometry relative="1" as="geometry">
            <mxPoint x="560" y="140" as="sourcePoint" />
            <mxPoint x="559.5" y="158" as="targetPoint" />
          </mxGeometry>
        </mxCell>
        <mxCell id="JLEFRj4Bol9iPgGIUzPf-2" value="memory copy" style="text;html=1;strokeColor=none;fillColor=none;align=left;verticalAlign=middle;whiteSpace=wrap;rounded=0;fontColor=#FFFFFF;" vertex="1" parent="1">
          <mxGeometry x="590" y="136" width="140" height="20" as="geometry" />
        </mxCell>
      </root>
    </mxGraphModel>
  </diagram>
</mxfile>
